<svg width="100" height="100" viewBox="0 0 100 100" xmlns="http://www.w3.org/2000/svg">
  <!-- Outer red ring -->
  <circle cx="50" cy="50" r="48" fill="#ef4444" stroke="#dc2626" stroke-width="4"/>
  
  <!-- Yellow ring -->
  <circle cx="50" cy="50" r="42" fill="#fbbf24" stroke="#f59e0b" stroke-width="2"/>
  
  <!-- Blue ring -->
  <circle cx="50" cy="50" r="38" fill="#3b82f6" stroke="#2563eb" stroke-width="2"/>
  
  <!-- Green ring -->
  <circle cx="50" cy="50" r="34" fill="#16a34a" stroke="#15803d" stroke-width="2"/>
  
  <!-- Inner off-white circle -->
  <circle cx="50" cy="50" r="30" fill="#fdf8f6"/>
  
  <!-- Decorative dots - left side -->
  <circle cx="35" cy="25" r="2" fill="#ef4444"/>
  <circle cx="35" cy="30" r="2" fill="#fbbf24"/>
  <circle cx="35" cy="35" r="2" fill="#3b82f6"/>
  <circle cx="35" cy="40" r="2" fill="#16a34a"/>
  
  <!-- Decorative dots - right side -->
  <circle cx="65" cy="25" r="2" fill="#ef4444"/>
  <circle cx="65" cy="30" r="2" fill="#fbbf24"/>
  <circle cx="65" cy="35" r="2" fill="#3b82f6"/>
  <circle cx="65" cy="40" r="2" fill="#16a34a"/>
  
  <!-- Central coffee cup icon -->
  <path d="M45 55 L45 70 L55 70 L55 55 L58 55 L58 52 L42 52 L42 55 Z" fill="none" stroke="#000" stroke-width="2"/>
  <!-- Coffee cup handle -->
  <path d="M58 58 Q62 58 62 62 Q62 66 58 66" fill="none" stroke="#000" stroke-width="2"/>
  <!-- Upward arrow -->
  <path d="M50 45 L47 48 L53 48 Z" fill="#000"/>
  <!-- Coffee beans/bubbles -->
  <circle cx="48" cy="60" r="1.5" fill="#000"/>
  <circle cx="52" cy="62" r="1" fill="#000"/>
  <circle cx="50" cy="65" r="1.2" fill="#000"/>
  
  <!-- Text: P/CK-ME-UP -->
  <text x="50" y="85" text-anchor="middle" font-family="Arial, sans-serif" font-size="8" font-weight="bold" fill="#000">P/CK-ME-UP</text>
</svg>
